<?xml version="1.0" standalone="no"?>
<!DOCTYPE svg PUBLIC "-//W3C//DTD SVG 20010904//EN"
 "http://www.w3.org/TR/2001/REC-SVG-20010904/DTD/svg10.dtd">
<svg version="1.0" xmlns="http://www.w3.org/2000/svg"
 width="700.000000pt" height="700.000000pt" viewBox="0 0 700.000000 700.000000"
 preserveAspectRatio="xMidYMid meet">
<metadata>
Created by potrace 1.11, written by Peter Selinger 2001-2013
</metadata>
<g transform="translate(0.000000,700.000000) scale(0.100000,-0.100000)"
fill="#000000" stroke="none">
<path d="M3415 6994 c-125 -30 -186 -65 -302 -170 -42 -38 -86 -77 -97 -87
-12 -10 -57 -51 -100 -90 -44 -40 -84 -76 -90 -82 -7 -5 -35 -32 -64 -58 -56
-51 -67 -53 -157 -26 -16 4 -46 11 -65 14 -19 3 -63 12 -98 20 -34 8 -76 17
-92 20 -16 3 -60 12 -97 21 -128 30 -218 42 -284 39 -127 -7 -257 -69 -339
-162 -75 -86 -70 -73 -243 -603 l-53 -165 -200 -63 c-109 -35 -208 -67 -219
-72 -11 -4 -68 -24 -126 -43 -60 -19 -131 -50 -163 -71 -141 -94 -227 -258
-221 -423 1 -37 32 -209 70 -385 l67 -316 -38 -43 c-22 -23 -46 -49 -55 -58
-8 -9 -78 -86 -154 -171 -77 -85 -142 -157 -145 -160 -51 -46 -113 -157 -136
-242 -15 -60 -12 -205 6 -258 39 -113 65 -150 232 -331 50 -54 179 -198 224
-249 21 -25 46 -50 54 -56 12 -10 12 -21 -2 -85 -18 -78 -73 -337 -81 -379 -3
-14 -11 -47 -17 -75 -22 -94 -24 -110 -23 -190 1 -105 3 -112 51 -220 32 -70
124 -169 196 -208 40 -22 259 -97 629 -214 31 -10 52 -24 57 -37 5 -12 45
-136 90 -276 44 -140 90 -280 102 -310 92 -238 322 -363 578 -314 90 17 76 14
285 59 94 20 179 39 190 41 11 2 41 9 67 15 26 6 53 7 61 2 8 -4 54 -44 102
-88 49 -44 96 -87 105 -95 9 -8 53 -47 96 -86 171 -154 203 -180 255 -206 80
-41 152 -57 249 -53 145 5 231 46 368 173 20 18 54 49 76 68 23 20 64 57 91
82 113 106 236 212 246 212 5 0 60 -11 122 -25 574 -125 579 -126 702 -94 151
39 283 155 338 297 14 37 58 168 97 292 105 329 101 321 141 336 19 7 161 54
316 104 156 50 304 103 330 118 70 38 156 129 193 201 62 123 70 234 31 416
-12 55 -42 193 -67 307 -27 123 -42 213 -37 221 8 14 111 130 184 208 20 21
65 71 100 110 35 40 82 92 104 117 106 119 145 222 140 369 -5 165 -40 230
-236 444 -13 14 -58 63 -99 109 -41 46 -80 88 -85 94 -6 6 -34 37 -64 68 l-53
57 27 128 c15 70 29 139 32 153 2 13 13 61 23 106 11 45 22 97 25 116 3 18 11
53 16 78 40 175 -6 351 -123 473 -78 81 -131 108 -358 182 -113 37 -257 83
-320 104 l-114 37 -42 130 c-24 71 -68 208 -99 304 -72 221 -96 270 -170 345
-108 110 -210 151 -370 149 -59 -1 -140 -15 -389 -70 -11 -3 -32 -7 -46 -10
-14 -3 -75 -16 -137 -30 -65 -15 -118 -22 -127 -17 -7 4 -38 31 -68 58 -30 28
-90 82 -132 120 -43 39 -93 84 -110 100 -173 161 -222 196 -321 230 -49 16
-200 28 -240 19z"/>
</g>
</svg>
